<svg width="182" height="57" viewBox="0 0 182 57" fill="none" xmlns="http://www.w3.org/2000/svg">
<path d="M7.736 24.09C7.34 24.09 6.992 24.015 6.692 23.865C6.398 23.715 6.17 23.499 6.008 23.217C5.846 22.929 5.765 22.59 5.765 22.2V20.85C5.765 20.454 5.846 20.115 6.008 19.833C6.17 19.551 6.398 19.335 6.692 19.185C6.992 19.035 7.34 18.96 7.736 18.96C8.306 18.96 8.765 19.113 9.113 19.419C9.461 19.725 9.644 20.142 9.662 20.67H8.852C8.834 20.352 8.726 20.109 8.528 19.941C8.336 19.767 8.072 19.68 7.736 19.68C7.382 19.68 7.1 19.782 6.89 19.986C6.68 20.184 6.575 20.469 6.575 20.841V22.2C6.575 22.572 6.68 22.86 6.89 23.064C7.1 23.268 7.382 23.37 7.736 23.37C8.072 23.37 8.336 23.283 8.528 23.109C8.726 22.935 8.834 22.692 8.852 22.38H9.662C9.644 22.908 9.461 23.325 9.113 23.631C8.765 23.937 8.306 24.09 7.736 24.09ZM11.3955 24V19.05H12.1875V19.995H12.3765L12.1155 20.58C12.1155 20.046 12.2295 19.644 12.4575 19.374C12.6915 19.098 13.0365 18.96 13.4925 18.96C14.0145 18.96 14.4285 19.125 14.7345 19.455C15.0465 19.779 15.2025 20.22 15.2025 20.778V21.075H14.3925V20.85C14.3925 20.46 14.2965 20.163 14.1045 19.959C13.9185 19.749 13.6515 19.644 13.3035 19.644C12.9615 19.644 12.6915 19.749 12.4935 19.959C12.3015 20.169 12.2055 20.466 12.2055 20.85V24H11.3955ZM18.493 24.09C18.103 24.09 17.761 24.012 17.467 23.856C17.179 23.7 16.954 23.481 16.792 23.199C16.636 22.911 16.558 22.578 16.558 22.2V20.85C16.558 20.466 16.636 20.133 16.792 19.851C16.954 19.569 17.179 19.35 17.467 19.194C17.761 19.038 18.103 18.96 18.493 18.96C18.883 18.96 19.222 19.038 19.51 19.194C19.804 19.35 20.029 19.569 20.185 19.851C20.347 20.133 20.428 20.466 20.428 20.85V21.723H17.35V22.2C17.35 22.59 17.449 22.89 17.647 23.1C17.845 23.304 18.127 23.406 18.493 23.406C18.805 23.406 19.057 23.352 19.249 23.244C19.441 23.13 19.558 22.962 19.6 22.74H20.41C20.356 23.154 20.152 23.484 19.798 23.73C19.45 23.97 19.015 24.09 18.493 24.09ZM19.636 21.183V20.85C19.636 20.46 19.537 20.16 19.339 19.95C19.147 19.74 18.865 19.635 18.493 19.635C18.127 19.635 17.845 19.74 17.647 19.95C17.449 20.16 17.35 20.46 17.35 20.85V21.111H19.699L19.636 21.183ZM23.4575 24.09C22.9355 24.09 22.5245 23.958 22.2245 23.694C21.9245 23.424 21.7745 23.061 21.7745 22.605C21.7745 22.143 21.9245 21.78 22.2245 21.516C22.5245 21.252 22.9295 21.12 23.4395 21.12H24.9695V20.625C24.9695 20.319 24.8765 20.085 24.6905 19.923C24.5105 19.755 24.2525 19.671 23.9165 19.671C23.6225 19.671 23.3765 19.734 23.1785 19.86C22.9805 19.98 22.8665 20.145 22.8365 20.355H22.0265C22.0805 19.929 22.2815 19.59 22.6295 19.338C22.9775 19.086 23.4125 18.96 23.9345 18.96C24.5045 18.96 24.9545 19.107 25.2845 19.401C25.6145 19.695 25.7795 20.094 25.7795 20.598V24H24.9875V23.055H24.8525L24.9875 22.92C24.9875 23.28 24.8465 23.565 24.5645 23.775C24.2885 23.985 23.9195 24.09 23.4575 24.09ZM23.6555 23.451C24.0395 23.451 24.3545 23.355 24.6005 23.163C24.8465 22.971 24.9695 22.725 24.9695 22.425V21.723H23.4575C23.1875 21.723 22.9745 21.798 22.8185 21.948C22.6625 22.098 22.5845 22.302 22.5845 22.56C22.5845 22.836 22.6775 23.055 22.8635 23.217C23.0555 23.373 23.3195 23.451 23.6555 23.451ZM29.8259 24C29.3999 24 29.0669 23.886 28.8269 23.658C28.5929 23.43 28.4759 23.109 28.4759 22.695V19.788H27.0809V19.05H28.4759V17.655H29.2859V19.05H31.2659V19.788H29.2859V22.695C29.2859 23.073 29.4659 23.262 29.8259 23.262H31.1759V24H29.8259ZM32.7474 24V23.262H34.5024V19.788H32.9724V19.05H35.3124V23.262H36.9774V24H32.7474ZM34.8174 18.159C34.6194 18.159 34.4634 18.108 34.3494 18.006C34.2354 17.904 34.1784 17.766 34.1784 17.592C34.1784 17.412 34.2354 17.271 34.3494 17.169C34.4634 17.061 34.6194 17.007 34.8174 17.007C35.0154 17.007 35.1714 17.061 35.2854 17.169C35.3994 17.271 35.4564 17.412 35.4564 17.592C35.4564 17.766 35.3994 17.904 35.2854 18.006C35.1714 18.108 35.0154 18.159 34.8174 18.159ZM39.5299 24L37.8739 19.05H38.7019L39.7999 22.38C39.8659 22.578 39.9259 22.77 39.9799 22.956C40.0339 23.136 40.0729 23.277 40.0969 23.379C40.1269 23.277 40.1689 23.136 40.2229 22.956C40.2769 22.77 40.3339 22.578 40.3939 22.38L41.4649 19.05H42.2839L40.6279 24H39.5299ZM45.4754 24.09C45.0854 24.09 44.7434 24.012 44.4494 23.856C44.1614 23.7 43.9364 23.481 43.7744 23.199C43.6184 22.911 43.5404 22.578 43.5404 22.2V20.85C43.5404 20.466 43.6184 20.133 43.7744 19.851C43.9364 19.569 44.1614 19.35 44.4494 19.194C44.7434 19.038 45.0854 18.96 45.4754 18.96C45.8654 18.96 46.2044 19.038 46.4924 19.194C46.7864 19.35 47.0114 19.569 47.1674 19.851C47.3294 20.133 47.4104 20.466 47.4104 20.85V21.723H44.3324V22.2C44.3324 22.59 44.4314 22.89 44.6294 23.1C44.8274 23.304 45.1094 23.406 45.4754 23.406C45.7874 23.406 46.0394 23.352 46.2314 23.244C46.4234 23.13 46.5404 22.962 46.5824 22.74H47.3924C47.3384 23.154 47.1344 23.484 46.7804 23.73C46.4324 23.97 45.9974 24.09 45.4754 24.09ZM46.6184 21.183V20.85C46.6184 20.46 46.5194 20.16 46.3214 19.95C46.1294 19.74 45.8474 19.635 45.4754 19.635C45.1094 19.635 44.8274 19.74 44.6294 19.95C44.4314 20.16 44.3324 20.46 44.3324 20.85V21.111H46.6814L46.6184 21.183ZM7.736 36.09C7.34 36.09 6.992 36.015 6.692 35.865C6.398 35.715 6.17 35.499 6.008 35.217C5.846 34.929 5.765 34.59 5.765 34.2V32.85C5.765 32.454 5.846 32.115 6.008 31.833C6.17 31.551 6.398 31.335 6.692 31.185C6.992 31.035 7.34 30.96 7.736 30.96C8.306 30.96 8.765 31.113 9.113 31.419C9.461 31.725 9.644 32.142 9.662 32.67H8.852C8.834 32.352 8.726 32.109 8.528 31.941C8.336 31.767 8.072 31.68 7.736 31.68C7.382 31.68 7.1 31.782 6.89 31.986C6.68 32.184 6.575 32.469 6.575 32.841V34.2C6.575 34.572 6.68 34.86 6.89 35.064C7.1 35.268 7.382 35.37 7.736 35.37C8.072 35.37 8.336 35.283 8.528 35.109C8.726 34.935 8.834 34.692 8.852 34.38H9.662C9.644 34.908 9.461 35.325 9.113 35.631C8.765 35.937 8.306 36.09 7.736 36.09ZM13.7715 36C13.4835 36 13.2315 35.943 13.0155 35.829C12.7995 35.715 12.6315 35.553 12.5115 35.343C12.3915 35.133 12.3315 34.887 12.3315 34.605V30.168H10.6665V29.43H13.1415V34.605C13.1415 34.809 13.1985 34.971 13.3125 35.091C13.4265 35.205 13.5795 35.262 13.7715 35.262H15.3465V36H13.7715ZM18.493 36.072C18.097 36.072 17.755 35.997 17.467 35.847C17.179 35.697 16.954 35.481 16.792 35.199C16.636 34.911 16.558 34.572 16.558 34.182V32.868C16.558 32.472 16.636 32.133 16.792 31.851C16.954 31.569 17.179 31.353 17.467 31.203C17.755 31.053 18.097 30.978 18.493 30.978C18.889 30.978 19.231 31.053 19.519 31.203C19.807 31.353 20.029 31.569 20.185 31.851C20.347 32.133 20.428 32.469 20.428 32.859V34.182C20.428 34.572 20.347 34.911 20.185 35.199C20.029 35.481 19.807 35.697 19.519 35.847C19.231 35.997 18.889 36.072 18.493 36.072ZM18.493 35.352C18.847 35.352 19.123 35.253 19.321 35.055C19.519 34.857 19.618 34.566 19.618 34.182V32.868C19.618 32.484 19.519 32.193 19.321 31.995C19.123 31.797 18.847 31.698 18.493 31.698C18.145 31.698 17.869 31.797 17.665 31.995C17.467 32.193 17.368 32.484 17.368 32.868V34.182C17.368 34.566 17.467 34.857 17.665 35.055C17.869 35.253 18.145 35.352 18.493 35.352ZM23.8805 36.09C23.3105 36.09 22.8545 35.922 22.5125 35.586C22.1705 35.244 21.9995 34.782 21.9995 34.2V31.05H22.8095V34.2C22.8095 34.572 22.9055 34.863 23.0975 35.073C23.2895 35.277 23.5505 35.379 23.8805 35.379C24.2165 35.379 24.4805 35.277 24.6725 35.073C24.8705 34.863 24.9695 34.572 24.9695 34.2V31.05H25.7795V34.2C25.7795 34.782 25.6055 35.244 25.2575 35.586C24.9095 35.922 24.4505 36.09 23.8805 36.09ZM29.8259 36C29.3999 36 29.0669 35.886 28.8269 35.658C28.5929 35.43 28.4759 35.109 28.4759 34.695V31.788H27.0809V31.05H28.4759V29.655H29.2859V31.05H31.2659V31.788H29.2859V34.695C29.2859 35.073 29.4659 35.262 29.8259 35.262H31.1759V36H29.8259Z" fill="white"/>
<g style="mix-blend-mode:color-dodge">
<rect width="52" height="48" rx="21" fill="#D9D9D9"/>
</g>
</svg>
